<svg xmlns="http://www.w3.org/2000/svg">
    <symbol id="external-link" viewBox="0 0 512 512">
        <!--!Font Awesome Free 6.7.2 by @fontawesome - https://fontawesome.com License - https://fontawesome.com/license/free Copyright 2024 Fonticons, Inc.-->
        <path d="M352 0c-12.9 0-24.6 7.8-29.6 19.8s-2.2 25.7 6.9 34.9L370.7 96 201.4 265.4c-12.5 12.5-12.5 32.8 0 45.3s32.8 12.5 45.3 0L416 141.3l41.4 41.4c9.2 9.2 22.9 11.9 34.9 6.9s19.8-16.6 19.8-29.6l0-128c0-17.7-14.3-32-32-32L352 0zM80 32C35.8 32 0 67.8 0 112L0 432c0 44.2 35.8 80 80 80l320 0c44.2 0 80-35.8 80-80l0-112c0-17.7-14.3-32-32-32s-32 14.3-32 32l0 112c0 8.8-7.2 16-16 16L80 448c-8.8 0-16-7.2-16-16l0-320c0-8.8 7.2-16 16-16l112 0c17.7 0 32-14.3 32-32s-14.3-32-32-32L80 32z"/>
    </symbol>
    <symbol id="logo" viewBox="0 0 866 832">
        <path fill="#fff" d="M282.344 465.446c55.216-10.189 89.227-22.651 102.032-37.384 2.479-3.029 3.718-5.714 3.718-8.055 0-1.79-.757-3.374-2.272-4.751-5.783-5.507-15.422-8.261-28.916-8.261-11.979 0-24.441 3.58-37.384 10.74-12.806 7.022-23.684 18.933-32.634 35.732-1.652 3.304-3.167 7.298-4.544 11.979Zm38.83 117.11c-17.212 0-30.637-4.475-40.276-13.425-15.146-14.596-22.719-35.87-22.719-63.822 0-6.196.413-12.392 1.239-18.589-19.553-.137-42.892-3.442-70.018-9.914-34.286-8.399-69.605-19.621-105.957-33.666v5.576c0 20.792-1.514 32.496-4.544 35.113-1.79 1.514-3.855 2.272-6.196 2.272-2.892 0-5.163-.964-6.816-2.892-1.514-1.928-2.272-3.993-2.272-6.196l.207-1.033c1.101-12.255 1.652-22.72 1.652-31.395 0-3.167-.069-6.058-.206-8.674l-1.653-.827c-13.218-4.957-25.473-8.468-36.764-10.533-6.747-1.377-12.393-2.892-16.937-4.544-4.406-1.653-7.367-4.2-8.881-7.642C.344 410.988 0 409.68 0 408.44c0-6.334 7.367-12.323 22.1-17.969l2.685-1.033c9.226-3.855 17.212-5.783 23.96-5.783 8.123 0 15.215 3.03 21.273 9.088 5.508 5.783 9.432 15.766 11.773 29.949 38.142 15.146 75.457 27.195 111.946 36.145 25.612 6.196 47.161 9.294 64.648 9.294h4.338c2.203-9.225 4.75-16.798 7.642-22.719 10.878-20.517 24.234-35.113 40.069-43.787 15.973-8.675 31.463-13.013 46.472-13.013 18.314 0 32.221 4.475 41.722 13.426 5.37 5.232 8.124 9.569 8.262 13.012.137 3.304.206 5.095.206 5.37 0 6.334-3.029 12.943-9.088 19.828-16.11 18.589-56.111 33.46-120.001 44.613a126.119 126.119 0 0 0-1.446 19.002c0 23.684 5.508 40.827 16.523 51.429 6.334 5.921 15.56 8.882 27.677 8.882 19.278 0 43.994-8.193 74.149-24.579 27.264-14.595 60.724-37.866 100.38-69.811 1.79-1.377 3.649-2.066 5.577-2.066 2.891 0 5.301 1.102 7.229 3.305 1.377 1.79 2.065 3.718 2.065 5.783 0 2.892-1.101 5.301-3.305 7.229-76.696 61.825-135.354 94.528-175.974 98.108-3.443.275-6.678.413-9.708.413ZM62.169 414.843c-3.167-8.537-7.16-12.805-11.98-12.805h-1.445c-4.681 0-10.396 1.514-17.143 4.544l-.413.206c9.226 1.79 19.553 4.475 30.981 8.055Zm485.17 208.196c-11.016 0-20.654-3.994-28.916-11.98-9.226-8.812-15.629-22.926-19.209-42.341-3.442-21.618-5.163-45.509-5.163-71.671 0-6.884.137-13.838.413-20.86 0-3.305.344-11.36 1.033-24.166 2.34-38.968 5.507-73.805 9.501-104.511 4.13-30.843 6.953-49.845 8.468-57.006 10.878-70.637 23.615-127.643 38.21-171.017 14.734-43.374 29.192-73.874 43.374-91.499 11.704-14.733 22.651-22.1 32.841-22.1 4.268 0 8.399 1.308 12.392 3.925 11.704 7.71 17.556 27.332 17.556 58.864 0 23.408-4.406 53.839-13.218 91.292-20.517 88.125-64.442 194.288-131.775 318.489l-.413 18.589c0 55.492 6.265 89.089 18.796 100.793 4.681 4.544 10.258 6.816 16.729 6.816 9.501 0 20.586-4.681 33.254-14.045 14.045-10.327 28.227-25.473 42.548-45.439 14.32-20.104 27.745-44.407 40.276-72.91 1.652-3.718 4.475-5.576 8.468-5.576 1.239 0 2.478.275 3.718.826 3.58 1.79 5.37 4.613 5.37 8.468 0 1.239-.207 2.478-.62 3.718-13.219 30.017-27.539 55.698-42.961 77.04-15.284 21.205-30.568 37.453-45.852 48.744-15.835 11.705-30.775 17.557-44.82 17.557Zm-32.427-187.335c45.99-89.364 78.211-164.683 96.662-225.958 18.589-61.274 27.883-108.16 27.883-140.656 0-25.198-3.167-39.863-9.501-43.993-.826-.413-1.652-.62-2.478-.62-4.131 0-10.052 4.888-17.763 14.665-13.357 16.66-27.057 45.921-41.102 87.78-14.045 41.86-26.369 97.213-36.971 166.061l-.207 1.239c-1.239 6.059-3.718 22.376-7.435 48.951-3.581 26.437-6.61 57.281-9.088 92.531Zm227.197 392.225c-22.031 0-39.794-25.198-53.288-75.595-12.53-47.229-20.792-108.022-24.785-182.377a1111.91 1111.91 0 0 1-1.033-48.331c0-14.871.275-29.88.826-45.026v-1.859c1.239-30.982 3.993-62.032 8.262-93.151l.206-.826c11.842-65.543 25.336-117.868 40.483-156.973 25.611-66.369 50.603-99.554 74.975-99.554 4.406 0 8.537 1.24 12.392 3.718 10.603 7.023 15.904 23.546 15.904 49.57-.413 19.002-5.026 43.237-13.838 72.704-19.828 66.782-59.829 143.065-120.002 228.849-.55 14.734-.826 29.192-.826 43.374 0 15.835.344 31.464 1.033 46.885 3.855 72.841 11.911 132.326 24.165 178.454 7.849 29.191 16.868 48.537 27.058 58.038 2.616 2.479 4.888 3.718 6.816 3.718 1.652-.138 3.511-1.859 5.576-5.164 7.987-11.153 12.599-37.797 13.839-79.932l.206-13.425c0-56.868-6.678-102.101-20.035-135.699-11.015-27.677-26.368-48.744-46.059-63.202-2.478-1.928-3.717-4.475-3.717-7.642 0-1.79.619-3.511 1.858-5.164 1.653-2.065 3.167-3.167 4.544-3.304 1.377-.276 2.272-.413 2.685-.413 2.066 0 3.925.55 5.577 1.652 11.153 7.435 23.684 11.153 37.591 11.153 10.603 0 20.93-1.79 30.981-5.37 10.052-3.718 18.934-8.399 26.644-14.045 9.226-6.885 15.147-12.943 17.763-18.176 1.928-3.029 4.475-4.544 7.642-4.544 1.653 0 3.305.414 4.957 1.24 3.03 1.927 4.544 4.475 4.544 7.642 0 2.203-.895 4.681-2.685 7.435-4.544 6.885-11.497 13.839-20.861 20.861-9.225 6.885-19.965 12.53-32.22 16.937-11.567 4.406-23.615 6.609-36.145 6.609a98.26 98.26 0 0 1-8.882-.413c29.467 38.555 44.2 100.173 44.2 184.856l-.206 13.219c-1.377 45.99-6.954 75.939-16.73 89.846-5.508 8.262-11.98 12.737-19.415 13.425Zm-58.039-384.17c40.62-61.412 69.674-114.838 87.161-160.277 17.625-45.99 26.438-82.411 26.438-109.261 0-17.212-2.547-27.471-7.642-30.775a4.744 4.744 0 0 0-2.685-.826c-3.993 0-9.708 4.13-17.143 12.392-13.081 14.045-26.782 39.794-41.102 77.247-14.321 37.453-27.195 87.988-38.624 151.603a1005.854 1005.854 0 0 0-6.403 59.897Z"/>
        <path fill="#F4BECE" d="M843.546 635.018c-6.885-1.101-10.809-3.718-11.773-7.849-.964-3.993-1.446-7.022-1.446-9.087 0-3.856.895-7.574 2.685-11.154 2.754-5.645 6.954-8.468 12.599-8.468 7.574 3.58 11.36 8.812 11.36 15.697 0 8.675-4.475 15.629-13.425 20.861Z"/>
    </symbol>
</svg>
